<?xml version="1.0" encoding="utf-8"?>
<!-- Generator: Adobe Illustrator 22.1.0, SVG Export Plug-In . SVG Version: 6.00 Build 0)  -->
<svg version="1.1" id="Layer_1" xmlns="http://www.w3.org/2000/svg" xmlns:xlink="http://www.w3.org/1999/xlink" x="0px" y="0px"
	 viewBox="0 0 595 842" style="enable-background:new 0 0 595 842;" xml:space="preserve">
<style type="text/css">
	.st0{fill:#1CE1F8;}
	.st1{fill:#4A4A4A;}
	.st2{font-family:'HelveticaNeue-Bold';}
	.st3{font-size:64px;}
	.st4{enable-background:new    ;}
	.st5{fill:#006B07;}
	.st6{fill:none;stroke:url(#Path-3-Copy-2_1_);stroke-width:41;}
	.st7{fill:none;stroke:url(#Path-3-Copy_1_);stroke-width:41;}
	.st8{fill:none;stroke:url(#Path-3-Copy-3_1_);stroke-width:41;}
</style>
<title>Beta</title>
<desc>Created with Sketch.</desc>
<g id="Beta">
	<rect id="Rectangle" x="-29" y="-28" class="st0" width="657" height="901"/>
	<text transform="matrix(1 0 0 1 50 195)" class="st1 st2 st3">On fabrique et</text>
	<text transform="matrix(1 0 0 1 50 265)" class="st4"><tspan x="0" y="0" class="st1 st2 st3">affine nos</tspan><tspan x="0" y="76.8" class="st1 st2 st3">options</tspan></text>
	<text transform="matrix(1 0 0 1 50 113)" class="st5 st2 st3">Bet</text>
	<text transform="matrix(1 0 0 1 151.3184 113)" class="st5 st2 st3"> </text>
	<text transform="matrix(1 0 0 1 151.32 113)" class="st5 st2 st3">a</text>
	
		<linearGradient id="Path-3-Copy-2_1_" gradientUnits="userSpaceOnUse" x1="225.25" y1="490.4625" x2="225.25" y2="489.4625" gradientTransform="matrix(17.2272 163.9061 697.6301 -73.3239 -345425.5625 -462.9336)">
		<stop  offset="0" style="stop-color:#1CE1F8"/>
		<stop  offset="1" style="stop-color:#000A55"/>
	</linearGradient>
	<path id="Path-3-Copy-2" class="st6" d="M-81.4,567.9c12.8,80.5,115.8,107.5,185.8,14.5s129-162,242-126S616,492,616,492"/>
	
		<linearGradient id="Path-3-Copy_1_" gradientUnits="userSpaceOnUse" x1="225.4374" y1="490.4413" x2="225.4374" y2="489.4413" gradientTransform="matrix(18.7924 178.7981 646.9445 -67.9966 -320902.5 -6554.0361)">
		<stop  offset="0" style="stop-color:#1CE1F8"/>
		<stop  offset="1" style="stop-color:#000A55"/>
	</linearGradient>
	<path id="Path-3-Copy" class="st7" d="M-27.5,445.4c79.2-136,167-44,197.8,0s70.6,107.7,163.6,76.7S423,467.3,630,478.3"/>
	
		<linearGradient id="Path-3-Copy-3_1_" gradientUnits="userSpaceOnUse" x1="226.3949" y1="490.2278" x2="226.3949" y2="489.3168" gradientTransform="matrix(-68.0682 237.382 727.3602 208.5672 -340606.2188 -155424.2188)">
		<stop  offset="0" style="stop-color:#1CE1F8"/>
		<stop  offset="1" style="stop-color:#000A55"/>
	</linearGradient>
	<path id="Path-3-Copy-3" class="st8" d="M-133.6,466.1c59.8,61.8,130.4,78.2,230.2,18.2c99.7-60,184.1-167.1,275.4-91.3
		s223,84.6,223,84.6l54.1,4.1"/>
</g>
</svg>
