<?xml version="1.0" encoding="utf-8"?>
<!-- Generator: Adobe Illustrator 22.1.0, SVG Export Plug-In . SVG Version: 6.00 Build 0)  -->
<svg version="1.1" id="Layer_1" xmlns="http://www.w3.org/2000/svg" xmlns:xlink="http://www.w3.org/1999/xlink" x="0px" y="0px"
	 viewBox="0 0 595 842" style="enable-background:new 0 0 595 842;" xml:space="preserve">
<style type="text/css">
	.st0{fill:#1CF8AD;}
	.st1{fill:#4A4A4A;}
	.st2{font-family:'HelveticaNeue-Bold';}
	.st3{font-size:64px;}
	.st4{enable-background:new    ;}
	.st5{fill:#0076FF;}
	.st6{fill:#905FFE;}
	.st7{fill:#A57FF8;}
	.st8{fill:#C9B1FF;}
</style>
<title>Live</title>
<desc>Created with Sketch.</desc>
<g id="Live">
	<rect id="Rectangle" x="-29" y="-28" class="st0" width="657" height="901"/>
	<text transform="matrix(1 0 0 1 50 195)" class="st1 st2 st3">On continue</text>
	<text transform="matrix(1 0 0 1 50 265)" class="st4"><tspan x="0" y="0" class="st1 st2 st3">d’améliorer les</tspan><tspan x="0" y="76.8" class="st1 st2 st3">options</tspan></text>
	<text transform="matrix(1 0 0 1 50 113)" class="st5 st2 st3">Liv</text>
	<text transform="matrix(1 0 0 1 134.7422 113)" class="st5 st2 st3"> </text>
	<text transform="matrix(1 0 0 1 134.744 113)" class="st5 st2 st3">e</text>
	<circle id="Oval-2" class="st6" cx="491.5" cy="469.5" r="49.5"/>
	<path id="Oval-2-Copy" class="st7" d="M368.5,519c27.3,0,28.5-10.6,43.5-36s-16.2-63-43.5-63c-9.8,0-14.5,26-34.5,26
		c-16.5,0-17,19.4-17,37c0,12.3,17,11,22,25S353.5,519,368.5,519z"/>
	<path id="Oval-2-Copy-2" class="st8" d="M276.7,494.7c13.7-23.7,2.5-16.3-12-42c-6.6-11.7-20-16.8-34.1-16.1
		c-14.2,0.6-34-6.7-41.4,6.2c-4.9,8.4,10,29.6,0,47c-8.2,14.3,13.6,20.4,28.8,29.1c10.7,6.2,18.1-2.7,32.7,0
		C265.3,521.5,269.2,507.7,276.7,494.7z"/>
	<path id="Oval-2-Copy-3" class="st8" d="M121.7,443.1c-21.2-17.2-12.4-2.3-40,8c-12.6,4.7-21,3.3-22.6,17.4
		c-1.6,14.1-11.9,32.5-0.4,41.8c7.6,6.1,23.8-12.6,39.4,0c12.8,10.4,29.2-2.9,40.3-16.6c7.8-9.6,0.2-18.3,5.1-32.3
		C148.5,447.5,133.4,452.5,121.7,443.1z"/>
</g>
</svg>
